<svg width="19" height="19" viewBox="0 0 19 19" fill="none" xmlns="http://www.w3.org/2000/svg">
<g clip-path="url(#clip0_27046_37003)">
<path d="M6.39708 0H2.14239C0.961089 0 0 0.961089 0 2.14239V6.39708C0 7.57838 0.961089 8.53947 2.14239 8.53947H6.39708C7.57838 8.53947 8.53947 7.57838 8.53947 6.39708V2.14239C8.53947 0.961089 7.57838 0 6.39708 0ZM7.09211 6.39708C7.09211 6.78031 6.78031 7.09211 6.39708 7.09211H2.14239C1.75917 7.09211 1.44737 6.78031 1.44737 6.39708V2.14239C1.44737 1.75917 1.75917 1.44737 2.14239 1.44737H6.39708C6.78031 1.44737 7.09211 1.75917 7.09211 2.14239V6.39708Z" fill="#D2CFBF"/>
<path d="M16.3557 0H12.1584C10.9612 0 9.9873 0.973934 9.9873 2.17105V6.36842C9.9873 7.56554 10.9612 8.53947 12.1584 8.53947H16.3557C17.5528 8.53947 18.5268 7.56554 18.5268 6.36842V2.17105C18.5268 0.973934 17.5528 0 16.3557 0ZM17.0794 6.36842C17.0794 6.76746 16.7548 7.09211 16.3557 7.09211H12.1584C11.7593 7.09211 11.4347 6.76746 11.4347 6.36842V2.17105C11.4347 1.77201 11.7593 1.44737 12.1584 1.44737H16.3557C16.7548 1.44737 17.0794 1.77201 17.0794 2.17105V6.36842Z" fill="#D2CFBF"/>
<path d="M6.39708 9.98685H2.14239C0.961089 9.98685 0 10.9479 0 12.1292V16.3839C0 17.5652 0.961089 18.5263 2.14239 18.5263H6.39708C7.57838 18.5263 8.53947 17.5652 8.53947 16.3839V12.1292C8.53947 10.9479 7.57838 9.98685 6.39708 9.98685ZM7.09211 16.3839C7.09211 16.7672 6.78031 17.079 6.39708 17.079H2.14239C1.75917 17.079 1.44737 16.7672 1.44737 16.3839V12.1292C1.44737 11.746 1.75917 11.4342 2.14239 11.4342H6.39708C6.78031 11.4342 7.09211 11.746 7.09211 12.1292V16.3839Z" fill="#D2CFBF"/>
<path d="M16.3557 9.98685H12.1584C10.9612 9.98685 9.9873 10.9608 9.9873 12.1579V16.3553C9.9873 17.5524 10.9612 18.5263 12.1584 18.5263H16.3557C17.5528 18.5263 18.5268 17.5524 18.5268 16.3553V12.1579C18.5268 10.9608 17.5528 9.98685 16.3557 9.98685ZM17.0794 16.3553C17.0794 16.7543 16.7548 17.079 16.3557 17.079H12.1584C11.7593 17.079 11.4347 16.7543 11.4347 16.3553V12.1579C11.4347 11.7589 11.7593 11.4342 12.1584 11.4342H16.3557C16.7548 11.4342 17.0794 11.7589 17.0794 12.1579V16.3553Z" fill="#D2CFBF"/>
</g>
<defs>
<clipPath id="clip0_27046_37003">
<rect width="18.5263" height="18.5263" fill="white"/>
</clipPath>
</defs>
</svg>
