<svg width="15" height="14" viewBox="0 0 15 14" fill="none" xmlns="http://www.w3.org/2000/svg">
<path d="M7.10645 0.25C7.21803 0.25 7.29881 0.30184 7.33105 0.367188L9.25586 4.26758L9.31445 4.38574L9.44434 4.4043L13.748 5.0293C13.8425 5.04307 13.9216 5.10949 13.9512 5.2002C13.9802 5.28944 13.9562 5.38828 13.8877 5.45605L10.7734 8.49219L10.6787 8.58398L10.7012 8.71387L11.4365 13.001C11.4485 13.0713 11.4302 13.1426 11.3877 13.1973L11.3369 13.2461C11.2942 13.2773 11.2425 13.2939 11.1904 13.2939C11.1507 13.2939 11.1105 13.2838 11.0742 13.2646L7.22266 11.2402L7.10645 11.1787L6.99023 11.2402L3.13965 13.2646H3.13867C3.05525 13.3087 2.95355 13.302 2.87695 13.2461V13.2451C2.79992 13.1891 2.76142 13.0948 2.77734 13.001L3.5127 8.71289L3.53418 8.58301L3.44043 8.49121L0.326172 5.45605C0.257611 5.38901 0.232571 5.28941 0.261719 5.2002C0.291348 5.10955 0.370713 5.04303 0.464844 5.0293L4.76855 4.4043L4.89941 4.38574L4.95703 4.26758L6.88184 0.367188C6.91407 0.301855 6.9949 0.250024 7.10645 0.25Z" stroke="#FFF7E0" stroke-width="0.5"/>
</svg>
