<svg width="19" height="19" viewBox="0 0 19 19" fill="none" xmlns="http://www.w3.org/2000/svg">
<path d="M9.90421 1.6828C9.70307 1.59106 9.48458 1.54358 9.26351 1.54358C9.04244 1.54358 8.82394 1.59106 8.62281 1.6828L2.00737 4.69333C1.87039 4.75373 1.75393 4.85265 1.67217 4.97806C1.59041 5.10347 1.54688 5.24994 1.54688 5.39964C1.54688 5.54935 1.59041 5.69582 1.67217 5.82123C1.75393 5.94664 1.87039 6.04556 2.00737 6.10596L8.63052 9.12421C8.83166 9.21595 9.05015 9.26343 9.27123 9.26343C9.4923 9.26343 9.71079 9.21595 9.91193 9.12421L16.5351 6.11368C16.6721 6.05328 16.7885 5.95435 16.8703 5.82895C16.952 5.70354 16.9956 5.55707 16.9956 5.40736C16.9956 5.25766 16.952 5.11119 16.8703 4.98578C16.7885 4.86037 16.6721 4.76145 16.5351 4.70105L9.90421 1.6828Z" stroke="#B59131" stroke-width="1.54386" stroke-linecap="round" stroke-linejoin="round"/>
<path d="M1.54395 9.26315C1.54358 9.4108 1.58557 9.55545 1.66492 9.67996C1.74428 9.80446 1.85768 9.9036 1.99167 9.96561L8.63026 12.9839C8.83035 13.0745 9.04746 13.1213 9.26711 13.1213C9.48675 13.1213 9.70386 13.0745 9.90395 12.9839L16.5271 9.97333C16.6637 9.91191 16.7796 9.81207 16.8604 9.68596C16.9413 9.55986 16.9837 9.41295 16.9825 9.26315" stroke="#B59131" stroke-width="1.54386" stroke-linecap="round" stroke-linejoin="round"/>
<path d="M1.54395 13.1228C1.54358 13.2704 1.58557 13.4151 1.66492 13.5396C1.74428 13.6641 1.85768 13.7632 1.99167 13.8253L8.63026 16.8435C8.83035 16.9341 9.04746 16.981 9.26711 16.981C9.48675 16.981 9.70386 16.9341 9.90395 16.8435L16.5271 13.833C16.6637 13.7716 16.7796 13.6717 16.8604 13.5456C16.9413 13.4195 16.9837 13.2726 16.9825 13.1228" stroke="#B59131" stroke-width="1.54386" stroke-linecap="round" stroke-linejoin="round"/>
</svg>
