<svg width="15" height="14" viewBox="0 0 15 14" fill="none" xmlns="http://www.w3.org/2000/svg">
<path fill-rule="evenodd" clip-rule="evenodd" d="M6.99942 0.0107422C7.21275 -0.0295726 7.4541 0.0516604 7.55508 0.255859L9.48086 4.15723L13.7846 4.78223C13.9729 4.80987 14.1299 4.94219 14.1889 5.12305C14.2476 5.30361 14.1982 5.50137 14.0629 5.63477L10.9477 8.6709L11.683 12.959C11.715 13.1463 11.6384 13.3362 11.4848 13.4482C11.398 13.5116 11.294 13.5438 11.1908 13.5439L11.0717 13.5293L10.9584 13.4863L7.10684 11.4619L3.25625 13.4854C3.08835 13.5743 2.88385 13.5596 2.72989 13.4473C2.62122 13.3682 2.55237 13.2504 2.53165 13.1221C2.52143 13.0659 2.5198 13.0075 2.52969 12.9492L3.26309 8.66797L0.151762 5.63477C0.0838897 5.56839 0.0399999 5.48511 0.0179733 5.39648C0.0108614 5.37016 0.00410269 5.34358 0.00137178 5.31641C0.00101119 5.31188 0.00160842 5.30728 0.00137178 5.30273C-0.00322321 5.23976 0.0035923 5.17539 0.0238327 5.11328C0.0827935 4.9329 0.239797 4.80008 0.42813 4.77246L4.73282 4.14746L6.65762 0.246094C6.72532 0.109147 6.85632 0.0269892 6.99942 0V0.0107422ZM7.09415 0.500977L6.99942 0.692383V10.9531L7.10684 10.8965L7.33926 11.0195L11.1898 13.043L10.4555 8.75586L10.4106 8.49609L10.599 8.31348L13.7123 5.27734L9.4086 4.65234L9.14883 4.61426L9.03164 4.37793L7.11856 0.500977C7.11522 0.500477 7.11091 0.500033 7.10684 0.5C7.10237 0.500004 7.09774 0.50041 7.09415 0.500977Z" fill="#FFF7E0"/>
</svg>
