<svg width="12" height="12" viewBox="0 0 12 12" fill="none" xmlns="http://www.w3.org/2000/svg">
<path d="M1.72632 1.72632C3.89454 -0.441901 7.45751 -0.441901 9.62573 1.72632C11.7939 3.89454 11.7939 7.45752 9.62573 9.62573C8.52687 10.7246 7.1007 11.2595 5.67554 11.2595C4.25054 11.2594 2.82506 10.7245 1.72632 9.62573C-0.441901 7.45751 -0.441901 3.89454 1.72632 1.72632ZM5.70483 0.905029C4.47567 0.90511 3.24796 1.36288 2.30542 2.30542C0.448639 4.1622 0.448639 7.21915 2.30542 9.07593C4.16221 10.9326 7.21918 10.9327 9.07593 9.07593C10.933 7.18967 10.9323 4.16183 9.10522 2.30542L8.92554 2.13354C8.00941 1.30665 6.85725 0.905029 5.70483 0.905029ZM5.58862 4.73022C5.72065 4.73025 5.83796 4.76374 5.92163 4.84741C5.99081 4.91666 6.06812 5.02802 6.06812 5.18042V7.98022C6.0681 8.1144 6.03235 8.2417 5.90601 8.32593C5.86104 8.35589 5.81614 8.38329 5.7644 8.4021C5.71122 8.42139 5.65573 8.43041 5.58862 8.43042C5.47769 8.43042 5.37083 8.39297 5.27026 8.32593L5.26245 8.32007L5.25562 8.31323C5.18639 8.24401 5.10915 8.13273 5.10913 7.98022V5.18042C5.10913 5.04633 5.14415 4.91896 5.27026 4.83472C5.31532 4.80468 5.36003 4.77643 5.41187 4.75757C5.46519 4.73818 5.52131 4.73022 5.58862 4.73022ZM5.61792 3.12573C5.74993 3.12578 5.89673 3.15942 6.00952 3.27222C6.06137 3.32413 6.09882 3.37979 6.1228 3.44214C6.14655 3.50404 6.15503 3.56797 6.15503 3.63452C6.155 3.75914 6.12517 3.92201 5.9939 4.00952C5.94574 4.05471 5.89489 4.08921 5.83374 4.11108C5.76787 4.13461 5.69682 4.14232 5.61792 4.14233C5.53902 4.14233 5.46797 4.13457 5.4021 4.11108C5.33482 4.08706 5.27856 4.04903 5.22632 3.99683C5.17432 3.94483 5.13608 3.88937 5.11206 3.8269C5.08828 3.765 5.07985 3.70107 5.07983 3.63452C5.07983 3.52541 5.10322 3.38715 5.19702 3.29565L5.24097 3.25952C5.3518 3.15741 5.49122 3.12573 5.61792 3.12573Z" fill="#9CA3AF" stroke="#9CA3AF" stroke-width="0.2"/>
</svg>
